<svg width="48" height="48" viewBox="0 0 48 48" fill="none" xmlns="http://www.w3.org/2000/svg">
<g clip-path="url(#clip0)">
<path d="M47.4266 21.795L37.5641 4.6425C37.1933 3.98477 36.657 3.43532 36.0085 3.04857C35.3599 2.66182 34.6216 2.45118 33.8666 2.4375H14.1379C13.3828 2.45081 12.6444 2.66129 11.9958 3.04808C11.3472 3.43487 10.811 3.98452 10.4404 4.6425L0.574149 21.75C0.199086 22.4027 0.00170898 23.1423 0.00170898 23.895C0.00170898 24.6478 0.199086 25.3873 0.574149 26.04L10.4366 43.29C10.8036 43.9573 11.3369 44.5183 11.9848 44.9185C12.6328 45.3187 13.3732 45.5444 14.1341 45.5738H33.8629C34.6237 45.5476 35.3648 45.3245 36.0136 44.9262C36.6623 44.5278 37.1966 43.9679 37.5641 43.3013L47.4266 26.1488C47.8044 25.4854 48.0031 24.7352 48.0031 23.9719C48.0031 23.2085 47.8044 22.4583 47.4266 21.795Z" fill="#4285F4"/>
<path opacity="0.07" d="M32.0587 18.9562L18.4912 20.205L15.8662 22.83L18.1162 25.08L15.885 28.9875L32.46 45.5625H33.8625C34.6233 45.5364 35.3643 45.3132 36.0131 44.9149C36.6619 44.5166 37.1962 43.9567 37.5637 43.29L44.4375 31.335L32.0587 18.9562Z" fill="black"/>
<path d="M31.763 18.8513H16.223C16.162 18.8493 16.1012 18.8595 16.0442 18.8813C15.9872 18.9032 15.9351 18.9362 15.8911 18.9785C15.8471 19.0208 15.8119 19.0715 15.7878 19.1276C15.7636 19.1836 15.751 19.244 15.7505 19.305V22.5188C15.7505 22.6391 15.7983 22.7545 15.8834 22.8396C15.9685 22.9247 16.0839 22.9725 16.2042 22.9725H31.763C31.883 22.9715 31.9979 22.9234 32.0828 22.8385C32.1676 22.7536 32.2158 22.6388 32.2167 22.5188V19.305C32.2158 19.185 32.1676 19.0701 32.0828 18.9852C31.9979 18.9004 31.883 18.8522 31.763 18.8513ZM29.3592 21.8513C29.1753 21.8513 28.9955 21.7967 28.8426 21.6945C28.6896 21.5923 28.5704 21.4471 28.5 21.2772C28.4296 21.1072 28.4112 20.9202 28.4471 20.7398C28.483 20.5594 28.5716 20.3937 28.7016 20.2637C28.8317 20.1336 28.9974 20.045 29.1778 20.0091C29.3582 19.9732 29.5452 19.9917 29.7151 20.0621C29.8851 20.1324 30.0303 20.2516 30.1325 20.4046C30.2347 20.5575 30.2892 20.7373 30.2892 20.9213C30.2892 21.0434 30.2652 21.1643 30.2185 21.2772C30.1717 21.39 30.1032 21.4925 30.0169 21.5789C29.9305 21.6652 29.828 21.7337 29.7151 21.7805C29.6023 21.8272 29.4814 21.8513 29.3592 21.8513Z" fill="white"/>
<path d="M31.7625 25.0275H16.2225C16.1599 25.0254 16.0975 25.0362 16.0392 25.0592C15.981 25.0823 15.9281 25.117 15.8838 25.1613C15.8395 25.2056 15.8047 25.2585 15.7817 25.3168C15.7587 25.375 15.7479 25.4374 15.75 25.5V28.7138C15.751 28.8338 15.7991 28.9487 15.884 29.0336C15.9689 29.1184 16.0837 29.1666 16.2038 29.1675H31.7625C31.8825 29.1666 31.9974 29.1184 32.0823 29.0336C32.1672 28.9487 32.2153 28.8338 32.2163 28.7138V25.4813C32.2153 25.3612 32.1672 25.2464 32.0823 25.1615C31.9974 25.0766 31.8825 25.0285 31.7625 25.0275ZM29.3588 28.0275C29.1748 28.0275 28.995 27.973 28.8421 27.8708C28.6891 27.7686 28.5699 27.6234 28.4995 27.4534C28.4292 27.2835 28.4107 27.0965 28.4466 26.9161C28.4825 26.7357 28.5711 26.57 28.7011 26.4399C28.8312 26.3099 28.9969 26.2213 29.1773 26.1854C29.3577 26.1495 29.5447 26.1679 29.7146 26.2383C29.8846 26.3087 30.0298 26.4279 30.132 26.5809C30.2342 26.7338 30.2888 26.9136 30.2888 27.0975C30.2888 27.2197 30.2647 27.3406 30.218 27.4534C30.1712 27.5663 30.1027 27.6688 30.0164 27.7551C29.93 27.8415 29.8275 27.91 29.7146 27.9567C29.6018 28.0035 29.4809 28.0275 29.3588 28.0275Z" fill="white"/>
</g>
<defs>
<clipPath id="clip0">
<rect width="48" height="48" fill="white"/>
</clipPath>
</defs>
</svg>
